<?xml version="1.0" encoding="UTF-8"?>
<svg width="100px" height="100px" viewBox="0 0 100 100" version="1.1" xmlns="http://www.w3.org/2000/svg" xmlns:xlink="http://www.w3.org/1999/xlink">
    <!-- Generator: Sketch 52.5 (67469) - http://www.bohemiancoding.com/sketch -->
    <title>back_white</title>
    <desc>Created with Sketch.</desc>
    <g id="back_white" stroke="none" stroke-width="1" fill="none" fill-rule="evenodd">
        <g id="返回" transform="translate(21.000000, 0.000000)" fill="#FFFFFF">
            <path d="M52.6741167,99.9999495 C51.0217751,100.006504 49.4285625,99.3751779 48.2162951,98.2334942 L1.86806167,54.2387603 C0.679768621,53.1635949 0,51.6233124 0,50.0059336 C0,48.3885548 0.679768621,46.8482723 1.86806167,45.7731069 L48.2162951,1.77837307 C50.7307239,-0.592791022 54.6175096,-0.592791022 57.1319383,1.77837307 C58.3202313,2.85353844 58.9999999,4.39382095 58.9999999,6.0111997 C58.9999999,7.62857846 58.3202313,9.16886097 57.1319383,10.2440263 L15.2743046,50.0059336 L57.1319383,89.7678408 C58.3202314,90.8430062 59,92.3832887 59,94.0006675 C59,95.6180463 58.3202314,97.1583288 57.1319383,98.2334942 C55.9196709,99.3751779 54.3264584,100.006504 52.6741167,99.9999495 Z" id="路径"></path>
        </g>
    </g>
</svg>