<?xml version="1.0" encoding="UTF-8"?>
<svg width="100px" height="100px" viewBox="0 0 100 100" version="1.1" xmlns="http://www.w3.org/2000/svg" xmlns:xlink="http://www.w3.org/1999/xlink">
    <!-- Generator: Sketch 52.5 (67469) - http://www.bohemiancoding.com/sketch -->
    <title>camera</title>
    <desc>Created with Sketch.</desc>
    <g id="camera" stroke="none" stroke-width="1" fill="none" fill-rule="evenodd">
        <path d="" id="Path-2" stroke="#979797"></path>
        <path d="" id="Path-3" stroke="#979797"></path>
        <path d="M14.7919936,72.0985818 L59.7919075,44.1763423 C62.7514451,42.104666 66.8454721,42.8445504 68.9171484,45.804088 L87.3616029,68.2801797 C90.113785,62.7422182 91.6666667,56.5309646 91.6666667,50 C91.6666667,27.2222222 72.7777777,8.3333333 50,8.3333333 C27.2222223,8.3333333 8.3333333,27.2222222 8.3333333,50 C8.3333333,58.0784149 10.7092763,65.6676651 14.7919936,72.0985818 Z M50,0 C77.7777777,0 100,22.2222223 100,50 C100,77.7777777 77.7777777,100 50,100 C22.2222223,100 0,77.7777777 0,50 C0,22.2222223 22.2222223,0 50,0 Z M33.5,44 C28.8055796,44 25,40.1944204 25,35.5 C25,30.8055796 28.8055796,27 33.5,27 C38.1944204,27 42,30.8055796 42,35.5 C42,40.1944204 38.1944204,44 33.5,44 Z" id="Combined-Shape" fill="#989898" fill-rule="nonzero"></path>
    </g>
</svg>