<?xml version="1.0" encoding="UTF-8"?>
<svg width="100px" height="100px" viewBox="0 0 100 100" version="1.1" xmlns="http://www.w3.org/2000/svg" xmlns:xlink="http://www.w3.org/1999/xlink">
    <!-- Generator: Sketch 52.5 (67469) - http://www.bohemiancoding.com/sketch -->
    <title>emoji</title>
    <desc>Created with Sketch.</desc>
    <g id="emoji" stroke="none" stroke-width="1" fill="none" fill-rule="evenodd">
        <path d="" id="Path-2" stroke="#979797"></path>
        <path d="" id="Path-3" stroke="#979797"></path>
        <g id="笑脸" fill="#989898" fill-rule="nonzero">
            <path d="M50,0 C22.2222223,0 0,22.2222223 0,50 C0,77.7777777 22.2222223,100 50,100 C77.7777777,100 100,77.7777777 100,50 C100,22.2222223 77.7777777,0 50,0 Z M50,91.6666667 C27.2222223,91.6666667 8.3333333,72.7777778 8.3333333,50 C8.3333333,27.2222222 27.2222223,8.3333333 50,8.3333333 C72.7777777,8.3333333 91.6666667,27.2222222 91.6666667,50 C91.6666667,72.7777778 72.7777778,91.6666667 50,91.6666667 Z" id="Shape"></path>
            <path d="M27.7777777,36.6666667 C27.7777777,39.4444444 30,42.2222223 32.7777777,42.7777777 C35.5555555,43.8888889 38.8888889,42.2222222 40,39.4444444 C41.1111111,36.6666667 40,33.3333333 37.7777777,31.6666667 C35.5555555,30.0000001 31.6666666,30 29.4444444,32.2222223 C28.3333333,33.3333334 27.7777777,35 27.7777777,36.6666667 Z M59.4444444,36.6666667 C59.4444444,39.4444444 61.6666667,42.2222223 64.4444444,42.7777777 C67.2222222,43.3333333 70.5555556,41.6666666 71.6666667,38.8888889 C72.7777778,36.1111111 71.6666667,32.7777777 69.4444444,31.1111111 C67.2222222,29.4444445 63.3333333,30 61.6666667,31.6666667 C60.5555556,33.3333334 59.4444444,35 59.4444444,36.6666667 Z M70.5555556,52.7777777 C68.8888889,52.7777777 67.2222223,53.8888889 66.6666667,56.1111111 C65,64.4444444 57.7777778,70.5555556 49.4444444,70.5555556 C41.111111,70.5555556 34.4444444,63.8888889 32.7777777,55.5555556 C32.7777777,54.4444444 31.6666666,53.3333333 30.5555556,52.7777777 C29.4444445,52.2222222 27.7777778,52.2222222 26.6666667,53.3333333 C25.5555556,54.4444444 25.5555556,55.5555556 25.5555556,56.6666667 C27.7777778,68.888889 37.7777778,77.2222223 50,77.2222223 C62.2222222,77.2222223 72.2222223,68.888889 74.4444444,56.6666667 C74.4444444,55.5555556 74.4444444,54.4444444 73.8888889,53.8888889 C72.7777777,52.7777777 71.6666666,52.7777777 70.5555556,52.7777777 Z" id="Shape"></path>
        </g>
    </g>
</svg>