<?xml version="1.0" encoding="UTF-8"?>
<svg width="100px" height="100px" viewBox="0 0 100 100" version="1.1" xmlns="http://www.w3.org/2000/svg" xmlns:xlink="http://www.w3.org/1999/xlink">
    <!-- Generator: Sketch 52.5 (67469) - http://www.bohemiancoding.com/sketch -->
    <title>fabu</title>
    <desc>Created with Sketch.</desc>
    <g id="fabu" stroke="none" stroke-width="1" fill="none" fill-rule="evenodd">
        <path d="" id="Path-2" stroke="#979797"></path>
        <path d="" id="Path-3" stroke="#979797"></path>
        <rect id="Rectangle" fill="#42ACED" x="0" y="0" width="100" height="100"></rect>
        <g id="发布" transform="translate(20.000000, 20.000000)" fill="#FFFFFF">
            <path d="M25.7092926,60 C24.2101507,60 23,58.8041762 23,57.3227824 L23,41.9109333 C23,41.2951732 23.2167434,40.6883373 23.6141063,40.2153622 L56.1978661,0.976276786 C56.965499,0.0481746899 58.2659595,-0.255243265 59.3767695,0.226655895 C60.4875796,0.708555056 61.1378098,1.85975858 60.9752522,3.04665841 L53.5608213,55.1988565 C53.4434186,56.0555661 52.90156,56.805187 52.1339271,57.1978456 C51.3572632,57.5994282 50.4361037,57.5994282 49.6504088,57.2067696 L32.7353916,48.7021419 C31.3988072,48.0328375 30.8750107,46.4175829 31.5523338,45.1057462 C32.2296569,43.7849856 33.8642635,43.2673902 35.191817,43.9366946 L48.7292494,50.7457513 L54.2742683,11.7476155 L28.4185853,42.8747316 L28.4185853,57.3227824 C28.4185853,58.8041761 27.1994036,59.9999999 25.7092926,60 Z" id="Path"></path>
            <path d="M16.8012273,41 C16.3786732,41 15.9469332,40.9016048 15.542751,40.7048145 L1.48823473,33.638252 C0.578824852,33.1820562 0.000109476764,32.2696646 0.000109476764,31.2678228 C-0.00907649951,30.2659811 0.560452899,29.3535895 1.46986286,28.8795036 L56.9622371,0.309123227 C58.3033871,-0.379642996 59.9752314,0.121277922 60.6825502,1.42725018 C61.389869,2.73322252 60.8754553,4.36121535 59.5343055,5.04998157 L8.69921206,31.2230978 L18.0688895,35.9371211 C19.4192254,36.6169423 19.952011,38.2359902 19.2538782,39.5509074 C18.7670224,40.4722441 17.8024968,41 16.8012273,41 Z" id="Path"></path>
        </g>
    </g>
</svg>