<?xml version="1.0" encoding="UTF-8"?>
<svg width="100px" height="100px" viewBox="0 0 100 100" version="1.1" xmlns="http://www.w3.org/2000/svg" xmlns:xlink="http://www.w3.org/1999/xlink">
    <!-- Generator: Sketch 52.5 (67469) - http://www.bohemiancoding.com/sketch -->
    <title>gear</title>
    <desc>Created with Sketch.</desc>
    <g id="gear" stroke="none" stroke-width="1" fill="none" fill-rule="evenodd">
        <g id="齿轮" transform="translate(2.000000, 0.000000)" fill="#FFFFFF" fill-rule="nonzero">
            <path d="M56.1311639,0 C58.7254086,0 61.04592,1.61875 61.9604379,4.05625 L65.4194308,13.325 C67.3355636,14.24375 69.1708206,15.3125 70.8940959,16.5125 L80.6302899,14.8875 C83.1875728,14.4597944 85.7407983,15.6700953 87.0381365,17.925 L95.1692583,32.075 C96.46327,34.33125 96.226864,37.15625 94.5906857,39.16875 L88.3134846,46.825 C88.4764639,48.9385003 88.4764639,51.0614997 88.3134846,53.175 L94.5844645,60.825 C96.226864,62.84375 96.4508276,65.66875 95.1630371,67.925 L87.0319153,82.075 C85.7320372,84.3271294 83.1808343,85.5364716 80.6240687,85.1125 L70.8940959,83.4875 C69.1541344,84.6942912 67.3213945,85.7601514 65.4132096,86.675 L61.9542167,95.95 C61.0396988,98.38125 58.7191874,100 56.1249427,100 L39.8689203,100 C37.2808968,100 34.9541642,98.38125 34.0458675,95.95 L30.5806534,86.675 C28.6731974,85.7587624 26.8405645,84.6929644 25.0997671,83.4875 L15.3697943,85.1125 C12.811467,85.5355324 10.2589977,84.3267635 8.9557265,82.075 L0.837047106,67.925 C-0.464865021,65.6682874 -0.231585818,62.8360371 1.42184087,60.825 L7.6865996,53.175 C7.5235706,51.0615016 7.5235706,48.9384984 7.6865996,46.825 L1.42184087,39.16875 C-0.230509008,37.1596829 -0.463800157,34.3297809 0.837047106,32.075 L8.96194771,17.925 C10.2618258,15.6728706 12.8130287,14.4635284 15.3697943,14.8875 L25.1059883,16.5125 C26.8447911,15.3073201 28.6753342,14.2415278 30.5806534,13.325 L34.0520887,4.05625 C34.9613336,1.61939172 37.2784743,0.0035804672 39.8689203,0 L56.1311639,0 Z M56.1311639,6.25 L39.8689203,6.25 L36.4099274,15.51875 L35.5265155,17.875 L33.2682162,18.9625 C31.6571497,19.7403329 30.1076925,20.6408785 28.6334146,21.65625 L26.5617515,23.0875 L24.0857099,22.675 L14.355737,21.05 L6.22461519,35.2 L12.4893739,42.85 L14.0820038,44.79375 L13.8891462,47.30625 C13.7509676,49.0994007 13.7509676,50.9005993 13.8891462,52.69375 L14.0757825,55.20625 L12.4893739,57.15 L6.22461519,64.8 L14.355737,78.95 L24.0857099,77.325 L26.5617515,76.9125 L28.6334146,78.3375 C30.1016202,79.35625 31.663144,80.2625 33.2682162,81.0375 L35.5265155,82.125 L36.4099274,84.48125 L39.8689203,93.75 L56.1311639,93.75 L59.596378,84.48125 L60.4673475,82.125 L62.7380892,81.0375 C64.3431615,80.2625 65.898464,79.35625 67.3728908,78.3375 L69.4445539,76.9125 L71.9205956,77.325 L81.6505684,78.95 L89.7816902,64.8 L83.5107103,57.15 L81.9243017,55.20625 L82.110938,52.69375 C82.2366126,50.9001358 82.2366126,49.0998642 82.110938,47.30625 L81.9243017,44.79375 L83.5107103,42.85 L89.7816902,35.2 L81.6505684,21.05 L71.9205956,22.675 L69.4445539,23.0875 L67.3728908,21.65625 C65.8977789,20.6422076 64.3484246,19.7417218 62.7380892,18.9625 L60.4735687,17.875 L59.596378,15.51875 L56.1311639,6.25 Z M48.0000421,68.75 C37.6924034,68.75 29.3364113,60.3553391 29.3364113,50 C29.3364113,39.6446609 37.6924034,31.25 48.0000421,31.25 C58.3076808,31.25 66.6636729,39.6446609 66.6636729,50 C66.6636729,60.3553391 58.3076808,68.75 48.0000421,68.75 Z M48.0000421,62.5 C54.8718012,62.5 60.4424626,56.9035594 60.4424626,50 C60.4424626,43.0964406 54.8718012,37.5 48.0000421,37.5 C41.128283,37.5 35.5576216,43.0964406 35.5576216,50 C35.5576216,56.9035594 41.128283,62.5 48.0000421,62.5 Z" id="形状"></path>
        </g>
    </g>
</svg>