<?xml version="1.0" encoding="UTF-8"?>
<svg width="100px" height="100px" viewBox="0 0 100 100" version="1.1" xmlns="http://www.w3.org/2000/svg" xmlns:xlink="http://www.w3.org/1999/xlink">
    <!-- Generator: Sketch 52.5 (67469) - http://www.bohemiancoding.com/sketch -->
    <title>pay_waiting</title>
    <desc>Created with Sketch.</desc>
    
	
	
	<g id="a30-copy" stroke="none" stroke-width="1" fill="none" fill-rule="evenodd">
	    <g id="旋转" transform="translate(25.000000, 25.000000)" fill="#ffffff">
	        <g id="哭">
	            <path d="M25,49.9706458 C11.223092,49.9706458 0.0293542074,38.776908 0.0293542074,25 C0.0293542074,11.223092 11.223092,0.0293542074 25,0.0293542074 C38.776908,0.0293542074 49.9706458,11.223092 49.9706458,25 C49.9706458,29.6966732 48.6399217,34.3150685 46.1350293,38.3072407 C45.665362,39.0117417 44.7260274,39.2465753 43.9432485,38.776908 C43.2387475,38.3072407 43.0039139,37.3679061 43.4735812,36.5851272 C45.665362,33.1409002 46.8395303,29.0704501 46.8395303,24.9217221 C46.8395303,12.9452055 37.0547945,3.16046966 25,3.16046966 C12.9452055,3.16046966 3.16046966,12.9452055 3.16046966,25 C3.16046966,37.0547945 12.9452055,46.8395303 25,46.8395303 C29.4618395,46.8395303 33.7671233,45.5088062 37.3679061,43.0039139 C38.072407,42.5342466 39.0900195,42.6908023 39.5596869,43.3953033 C40.0293542,44.0998043 39.8727984,45.1174168 39.1682974,45.5870841 C34.9412916,48.4833659 30.0880626,49.9706458 25,49.9706458 Z" id="路径">
					<animateTransform attributeType="XML" attributeName="transform" begin="0s" dur="1s" type="rotate" from="0 25 25" to="360 25 25" repeatCount="indefinite" />
					
				</path>
	        
			
			
			
			</g>
	    </g>
	</g>
</svg>