<?xml version="1.0" encoding="UTF-8"?>
<svg width="100px" height="100px" viewBox="0 0 100 100" version="1.1" xmlns="http://www.w3.org/2000/svg" xmlns:xlink="http://www.w3.org/1999/xlink">
    <!-- Generator: Sketch 52.5 (67469) - http://www.bohemiancoding.com/sketch -->
    <title>msg</title>
    <desc>Created with Sketch.</desc>
    <g id="msg" stroke="none" stroke-width="1" fill="none" fill-rule="evenodd">
        <g id="通知" transform="translate(8.000000, 0.000000)" fill="#FFFFFF" fill-rule="nonzero">
            <path d="M31.8863334,90.6555556 C31.943,95.8111111 36.72,100 42.5566666,100 C43.3896667,100 44.0753333,99.9388889 44.6930001,99.8111111 C48.093,99.1666667 50.9546667,97.1111111 52.3430001,94.2833333 C52.8643334,93.161111 53.1363333,91.9388889 53.1363333,90.6444444 L53.1363333,90.5944444 C53.1332331,89.9759216 52.6225599,89.4752617 51.9916666,89.4722223 L33.0196666,89.4722223 C32.7141467,89.4690585 32.4205241,89.5881847 32.2066265,89.8020824 C31.9927288,90.0159801 31.8770576,90.3061476 31.8863334,90.6055556 L31.8863334,90.6611111 L31.8863334,90.6555556 Z M8.925,77.8555556 C7.701,77.8555556 7.41200004,77.1888889 8.31866668,76.3166667 L14.025,70.8722223 C15.385,69.5722223 16.49,67.0666667 16.49,65.2277777 L16.49,44.1333333 C16.49,30.7333333 23.9416667,20.75 35.9266666,18.0777777 L36.3346666,17.9833333 C37.5704526,17.6471817 38.4474249,16.5724608 38.5106667,15.3166667 L38.5106667,10.0944444 C38.5106667,8.0333333 40.307,6.35 42.5,6.35 C44.6930001,6.35 46.4836667,8.0333333 46.4836666,10.0944444 L46.4836666,15.3166667 C46.4836666,16.5222223 47.4753333,17.7166667 48.6596667,17.9833333 L49.062,18.0722223 C61.0583334,20.7611111 68.5100001,30.7444445 68.5100001,44.1277777 L68.5100001,65.2277777 C68.5100001,67.0444444 69.6320001,69.5777777 70.975,70.8444444 L76.6813333,76.2222223 C77.571,77.0611111 77.282,77.7444445 76.075,77.75 L8.925,77.8611111 L8.925,77.8555556 Z M76.8286666,67.4055556 C75.8630873,66.3703437 75.2924916,65.0395426 75.2136667,63.6388889 L75.2136667,44.1333333 C75.2136667,28.8555556 66.657,16.7444444 53.193,12.5777777 L53.193,10.0944444 C53.193,4.52777773 48.399,0 42.5,0 C36.6066667,0 31.807,4.52777773 31.807,10.0944444 L31.807,12.5833333 C18.3373333,16.7333333 9.78633333,28.8444444 9.78633333,44.1333333 L9.78633333,63.6333333 C9.78633333,64.8777777 9.02133333,66.6055556 8.17133336,67.4055556 L1.61499997,73.5833333 C0.645274225,74.5982091 0.0731690946,75.9167865 0,77.3055556 L0,82.0055556 C0,83.2277778 1.01433332,84.2111111 2.27233329,84.2111111 L82.7333334,84.2111111 C83.3334462,84.2140677 83.9100149,83.9824178 84.3354263,83.5674332 C84.7608377,83.1524485 85.0000076,82.5883533 85,82 L85,77.3055556 C85,76.0833333 84.2293333,74.3777778 83.385,73.5777777 L76.8286666,67.4 L76.8286666,67.4055556 Z" id="形状"></path>
        </g>
    </g>
</svg>